<?xml version="1.0" standalone="no"?>
<!DOCTYPE svg PUBLIC "-//W3C//DTD SVG 20010904//EN"
 "http://www.w3.org/TR/2001/REC-SVG-20010904/DTD/svg10.dtd">
<svg version="1.0" xmlns="http://www.w3.org/2000/svg"
 width="427.000000pt" height="480.000000pt" viewBox="0 0 427.000000 480.000000"
 preserveAspectRatio="xMidYMid meet">
<metadata>
Created by potrace 1.11, written by Peter Selinger 2001-2013
</metadata>
<g transform="translate(0.000000,480.000000) scale(0.100000,-0.100000)"
fill="#000000" stroke="none">
<path d="M1295 4612 c-173 -170 -321 -296 -445 -381 -125 -85 -364 -203 -640
-316 -91 -37 -171 -73 -179 -80 -11 -11 -11 -52 3 -262 20 -303 35 -473 42
-485 3 -5 12 -64 20 -131 8 -67 18 -131 23 -142 5 -11 15 -58 21 -105 7 -47
18 -95 26 -106 7 -12 15 -46 18 -75 3 -30 16 -85 30 -124 13 -38 27 -86 30
-105 4 -19 11 -44 15 -55 4 -11 23 -67 41 -125 19 -58 46 -133 62 -168 15 -34
28 -69 28 -76 0 -7 6 -19 13 -25 8 -6 20 -29 27 -51 7 -22 16 -40 20 -40 4 0
14 -15 21 -32 12 -30 47 -88 67 -113 4 -5 11 -17 15 -25 19 -38 164 -256 184
-278 7 -7 13 -17 13 -22 0 -5 6 -15 13 -22 7 -7 29 -38 49 -68 42 -63 548
-570 569 -570 3 0 24 -16 45 -36 22 -20 61 -54 88 -77 27 -23 57 -50 67 -59
10 -9 42 -36 71 -60 68 -56 95 -78 124 -103 13 -11 42 -33 64 -49 22 -17 40
-33 40 -38 0 -4 5 -8 10 -8 6 0 18 -8 28 -18 10 -9 35 -30 56 -47 21 -16 59
-47 85 -67 25 -21 50 -38 56 -38 5 0 37 26 70 58 33 31 113 102 178 156 64 55
117 103 117 107 0 4 8 10 18 13 10 3 47 34 83 68 78 75 137 128 204 181 28 22
64 53 80 68 17 16 41 38 55 49 162 136 301 289 500 550 30 40 60 78 65 84 6 7
15 19 20 28 6 8 37 53 71 99 54 76 131 206 176 299 44 92 77 169 84 196 4 16
10 34 14 39 4 6 30 78 58 161 28 83 55 160 61 170 11 20 21 63 51 209 10 50
25 122 34 160 33 140 57 264 85 445 22 139 33 358 26 528 l-7 173 -55 24 c-29
14 -57 25 -60 25 -8 0 -161 63 -219 91 -23 10 -44 19 -47 19 -4 0 -40 16 -81
35 -41 19 -80 35 -86 35 -5 0 -10 5 -10 10 0 6 -5 10 -11 10 -15 0 -166 77
-204 104 -16 11 -37 26 -46 31 -41 25 -97 64 -110 77 -8 7 -41 35 -74 62 -59
47 -221 195 -317 289 l-48 47 -688 0 -687 0 -120 -118z m1629 -54 c78 -73 150
-142 161 -153 32 -31 104 -90 165 -134 30 -22 60 -44 65 -48 6 -4 24 -15 40
-23 17 -8 39 -21 50 -30 11 -9 36 -23 55 -30 19 -7 42 -19 51 -27 8 -7 19 -13
23 -13 5 0 38 -14 75 -31 85 -41 225 -106 276 -129 22 -10 86 -33 142 -52
l103 -33 0 -161 c0 -145 -17 -525 -25 -532 -1 -1 -171 -5 -376 -8 l-374 -6
-115 35 c-63 19 -130 38 -149 42 -19 4 -50 14 -70 22 l-35 15 39 14 c22 8 65
21 95 28 115 30 233 68 257 83 46 30 43 31 -319 49 -76 4 -135 10 -133 14 3 4
26 18 52 30 27 12 50 26 53 30 3 4 23 17 45 29 22 12 63 36 92 54 110 67 169
102 186 109 16 7 23 29 11 40 -3 3 -22 2 -42 -3 -20 -5 -100 -20 -177 -34 -77
-13 -167 -31 -200 -40 -134 -37 -133 -43 -11 84 234 242 236 245 221 254 -8 4
-22 3 -32 -2 -10 -6 -52 -26 -93 -44 -111 -51 -290 -135 -333 -157 -22 -11
-43 -20 -48 -20 -7 0 27 68 41 80 3 3 26 38 50 78 25 40 56 91 70 112 66 104
100 164 100 176 0 26 -35 13 -82 -29 -44 -40 -186 -159 -306 -256 l-55 -45 7
40 c4 21 17 75 30 119 13 44 35 127 51 185 15 58 33 121 40 141 9 28 9 39 0
52 -11 15 -14 15 -32 -6 -11 -12 -28 -36 -36 -53 -9 -17 -36 -62 -62 -100 -25
-38 -50 -76 -55 -84 -5 -8 -33 -51 -62 -95 l-53 -80 -7 40 c-23 132 -38 228
-43 285 -8 81 -25 180 -35 199 -6 10 -12 1 -20 -30 -6 -24 -18 -66 -26 -94 -8
-27 -18 -74 -24 -103 -5 -30 -12 -57 -15 -62 -3 -5 -14 -50 -26 -102 -25 -115
-37 -158 -38 -138 -1 8 -8 29 -17 45 -21 40 -75 147 -108 214 -14 30 -26 61
-26 68 0 7 -4 13 -10 13 -5 0 -10 5 -10 11 0 6 -16 44 -35 84 -27 56 -40 73
-52 68 -13 -5 -15 -18 -9 -87 3 -45 9 -153 12 -241 2 -88 7 -176 9 -195 l4
-35 -27 31 c-82 93 -158 182 -220 259 -108 132 -122 144 -122 103 0 -24 51
-165 75 -210 8 -14 15 -33 15 -41 0 -17 53 -150 76 -190 20 -36 14 -43 -17
-19 -13 10 -44 30 -69 44 -25 14 -79 44 -120 68 -152 88 -210 113 -210 94 0
-4 25 -37 55 -75 30 -37 55 -71 55 -74 0 -4 21 -32 46 -63 25 -31 58 -72 72
-90 15 -18 37 -45 50 -60 32 -39 9 -40 -106 -3 -54 17 -112 33 -131 36 -19 3
-59 14 -90 25 -79 26 -174 50 -179 45 -8 -8 20 -35 69 -67 27 -17 49 -34 49
-38 0 -3 18 -16 40 -29 22 -12 40 -26 40 -30 0 -4 10 -13 23 -18 30 -15 197
-148 172 -139 -38 15 -545 39 -558 27 -4 -4 3 -15 15 -24 21 -15 303 -157 313
-157 2 0 24 -9 50 -20 58 -25 51 -39 -33 -65 -31 -10 -73 -26 -92 -37 -19 -10
-41 -18 -49 -18 -8 0 -33 -9 -55 -19 -23 -11 -72 -32 -111 -48 l-70 -27 -332
-3 c-269 -3 -333 -1 -333 10 0 7 -4 48 -10 92 -7 62 -40 530 -40 576 0 5 4 9
10 9 5 0 39 14 75 30 36 17 68 30 71 30 3 0 31 12 62 26 31 14 77 35 102 47
178 80 382 186 475 247 61 40 112 75 115 79 3 3 37 31 75 62 39 31 108 94 155
140 47 46 101 96 120 111 19 14 55 45 78 67 l44 41 670 0 671 0 141 -132z
m-701 -225 c9 -65 22 -172 28 -238 14 -157 24 -167 76 -77 15 26 35 56 45 66
10 11 18 24 18 28 0 5 25 43 55 84 31 41 65 93 76 114 12 22 25 43 30 46 12 7
12 -29 0 -42 -4 -5 -25 -72 -45 -149 -20 -77 -46 -169 -56 -205 -43 -141 -31
-141 146 5 33 27 77 64 98 80 21 17 61 49 89 72 50 42 76 51 44 15 -10 -10
-17 -21 -17 -25 0 -9 -63 -110 -79 -126 -7 -8 -18 -27 -23 -43 -6 -15 -14 -28
-19 -28 -5 0 -9 -4 -9 -9 0 -5 -18 -39 -40 -77 -21 -37 -37 -71 -34 -75 5 -8
39 4 139 51 33 15 87 40 120 55 33 15 95 45 137 65 42 21 85 41 95 44 10 3
-55 -69 -144 -161 -159 -164 -188 -202 -140 -189 12 3 83 17 157 31 74 14 179
34 233 44 54 10 95 15 90 11 -4 -5 -53 -34 -108 -66 -55 -31 -127 -72 -160
-92 -33 -19 -78 -45 -100 -57 -40 -23 -64 -49 -53 -60 4 -4 319 -22 448 -25
37 -1 8 -14 -65 -30 -33 -7 -64 -16 -70 -20 -5 -4 -44 -15 -85 -25 -81 -18
-160 -44 -174 -56 -4 -4 5 -14 22 -23 29 -15 200 -65 255 -74 15 -2 30 -8 33
-13 3 -5 -80 -9 -190 -9 -124 0 -196 4 -196 10 0 6 -42 10 -105 10 -63 0 -105
4 -105 10 0 6 47 10 120 10 107 0 139 7 111 24 -16 10 -53 146 -43 159 12 16
32 99 26 109 -3 4 -52 8 -110 8 -97 0 -104 1 -104 20 0 16 7 20 35 20 19 0 35
5 35 10 0 6 -16 10 -35 10 -34 0 -35 1 -35 40 0 22 -4 40 -10 40 -5 0 -10 -18
-10 -40 0 -38 -2 -40 -30 -40 -16 0 -30 -4 -30 -10 0 -5 14 -10 30 -10 23 0
30 -4 30 -20 0 -19 -7 -20 -99 -20 l-99 0 -15 -32 c-8 -18 -21 -67 -27 -108
-11 -65 -11 -80 3 -112 15 -36 19 -38 59 -38 75 0 178 -13 178 -21 0 -5 -40
-9 -90 -9 -79 0 -91 -2 -102 -20 -7 -11 -16 -20 -20 -20 -5 0 -8 9 -8 20 0 19
-7 20 -125 20 -116 0 -125 1 -125 19 0 10 7 22 17 25 16 6 170 -11 185 -20 22
-14 26 10 9 44 -10 21 -29 70 -41 110 l-22 72 27 77 c15 43 31 83 36 89 14 18
-1 24 -61 24 -32 0 -78 3 -104 6 -44 6 -46 8 -46 40 0 28 4 33 28 36 15 2 27
8 27 13 0 6 -12 11 -27 13 -24 3 -28 8 -28 33 0 40 -18 37 -22 -3 -2 -25 -8
-34 -25 -36 -31 -5 -29 -22 2 -22 22 0 25 -4 25 -35 l0 -35 -73 0 -74 0 -30
-47 c-73 -115 -90 -186 -69 -286 18 -86 31 -108 59 -103 154 33 187 34 187 7
0 -22 -40 -31 -137 -31 -35 0 -63 -4 -63 -10 0 -5 -4 -10 -10 -10 -5 0 -10 7
-10 15 0 8 -8 15 -17 15 -21 0 -28 54 -28 200 0 68 4 94 23 131 12 25 22 47
22 50 0 2 -39 4 -87 4 l-88 0 -3 27 c-3 24 1 28 32 34 46 8 47 24 1 24 l-35 0
0 50 c0 28 -3 50 -7 50 -11 0 -193 -192 -193 -204 0 -4 8 -2 17 5 12 9 10 3
-5 -18 -23 -32 -42 -50 -42 -38 0 4 7 13 15 22 9 8 14 18 11 20 -11 12 -315
-310 -359 -379 l-17 -28 -150 0 c-83 0 -150 4 -150 8 0 5 28 17 63 27 34 10
67 22 73 27 6 4 30 14 53 22 23 9 56 22 74 29 17 8 55 22 82 32 119 42 116 46
-145 167 -52 24 -115 54 -140 66 l-45 23 85 -5 c47 -3 169 -11 273 -18 143 -9
190 -9 199 0 6 6 10 13 7 15 -2 2 -33 24 -69 50 -36 26 -74 55 -85 63 -11 8
-45 33 -75 55 -30 21 -62 45 -70 52 -8 8 -30 22 -47 33 -54 31 -41 39 22 14
35 -14 127 -40 141 -40 7 0 28 -6 46 -14 36 -16 216 -66 236 -66 21 0 13 20
-30 75 -24 30 -54 70 -68 90 -14 19 -35 47 -47 61 -13 14 -23 29 -23 33 0 7
-36 58 -70 98 -20 24 -9 20 79 -26 145 -75 176 -93 183 -106 4 -7 22 -18 40
-26 18 -7 39 -19 46 -26 15 -15 32 -17 32 -4 0 4 -14 41 -31 82 -17 41 -37 94
-45 119 -8 25 -19 54 -24 65 -42 93 -88 217 -77 205 8 -8 56 -67 107 -130 52
-63 103 -125 114 -137 12 -11 32 -36 46 -54 30 -39 72 -79 83 -79 4 0 5 10 3
23 -3 12 -8 92 -11 177 -3 85 -8 196 -11 245 l-4 90 19 -25 c11 -13 25 -41 32
-62 7 -21 18 -43 26 -49 7 -6 13 -18 13 -26 0 -9 10 -36 23 -62 13 -25 33 -66
44 -91 53 -115 87 -180 94 -180 9 0 21 40 39 135 16 77 16 77 23 95 3 8 10 38
15 65 23 118 47 215 52 215 3 0 14 -53 23 -117z m19 -742 l96 -6 -16 -35 c-43
-93 -44 -178 -3 -266 29 -60 27 -68 -11 -60 -72 15 -162 18 -216 8 -31 -6 -82
-14 -113 -17 l-57 -7 -6 38 c-25 150 -21 177 41 292 l35 62 76 -1 c43 -1 121
-4 174 -8z m-638 -72 c11 17 266 15 266 -2 0 -7 -9 -39 -21 -72 -17 -50 -20
-72 -14 -140 4 -44 11 -85 17 -92 7 -8 -21 -10 -111 -6 -77 4 -136 2 -166 -6
-26 -7 -50 -9 -53 -6 -3 3 -8 42 -10 88 -3 68 -1 85 12 96 9 7 16 17 16 22 0
5 12 28 26 50 14 23 23 43 20 46 -3 3 -15 -11 -27 -31 -27 -46 -34 -47 -12 -1
9 19 20 35 25 35 4 0 8 8 8 18 0 13 2 14 9 3 6 -9 11 -10 15 -2z m-89 -72
c-14 -24 -25 -54 -25 -66 0 -22 -89 -203 -103 -210 -5 -2 -13 -14 -18 -28 -6
-16 -15 -23 -27 -21 -14 3 -17 14 -17 59 0 50 4 60 48 114 26 33 56 69 67 80
11 12 20 26 20 32 0 7 9 17 20 23 11 6 20 18 20 26 0 16 -18 -1 -75 -71 -16
-20 -39 -47 -50 -59 -11 -13 -29 -36 -40 -51 -11 -16 -33 -44 -49 -64 l-29
-36 6 36 c4 25 20 52 57 90 29 30 78 82 110 117 38 42 62 61 73 57 8 -4 18 -2
22 4 3 6 8 11 11 11 3 0 -7 -20 -21 -43z m1310 1 c-23 -75 -25 -117 -10 -160
34 -91 55 -82 -181 -74 -146 5 -213 11 -222 20 -25 25 -26 84 -1 162 l23 74
199 0 199 0 -7 -22z m-1332 -224 c3 -31 8 -58 11 -61 3 -3 25 0 48 7 24 7 69
15 101 17 53 4 58 3 55 -14 -3 -15 -17 -19 -102 -24 -54 -4 -109 -12 -121 -19
-35 -19 -55 -6 -55 34 0 40 36 130 48 122 5 -3 12 -31 15 -62z m-280 -123
c-87 -136 -106 -161 -124 -161 -11 0 -34 -7 -50 -16 -40 -20 -60 -13 -31 11
12 11 22 24 22 29 0 5 10 19 23 31 26 25 103 114 144 165 l28 34 3 -32 c2 -20
-4 -44 -15 -61z m62 -126 c-14 -21 -25 -42 -25 -46 0 -5 -9 -9 -21 -9 -11 0
-28 -4 -37 -9 -9 -4 -34 -11 -55 -14 l-38 -6 20 35 c11 19 25 40 31 47 6 6 25
35 42 62 17 28 47 74 67 104 l36 55 3 -91 c2 -83 1 -94 -23 -128z m135 50 l0
-135 -42 0 c-24 -1 -66 -9 -95 -19 -57 -19 -56 -23 -18 38 6 9 27 45 48 81 21
36 49 83 63 105 13 22 27 46 30 53 4 6 8 12 10 12 2 0 4 -61 4 -135z m470 118
c0 -11 -24 -76 -32 -89 -4 -5 -10 -32 -13 -60 -5 -38 -1 -67 19 -129 14 -43
24 -80 23 -81 -1 -1 -24 5 -52 13 -137 39 -209 41 -277 9 -43 -21 -54 -17 -61
21 -3 16 -10 48 -17 72 -13 53 -5 121 21 177 l19 41 88 8 c191 16 258 22 270
23 6 1 12 -1 12 -5z m500 -3 c0 -6 -7 -27 -16 -48 -23 -57 -22 -165 4 -239 12
-34 22 -66 22 -71 0 -5 -24 -5 -52 -1 -91 13 -240 10 -301 -6 -32 -8 -61 -15
-65 -15 -16 0 -81 174 -82 217 0 12 12 53 26 92 l26 70 112 4 c270 7 326 7
326 -3z m444 -55 c-5 -52 -2 -82 16 -148 13 -45 28 -88 33 -95 5 -7 8 -14 6
-16 -2 -2 -49 3 -104 11 -94 13 -176 13 -285 -3 l-45 -6 -23 61 c-34 88 -36
114 -12 165 11 25 25 57 30 71 l10 25 190 0 191 0 -7 -65z m1273 13 c-2 -13
-15 -72 -27 -133 -12 -60 -26 -119 -30 -130 -5 -11 -16 -62 -25 -114 -9 -51
-20 -103 -25 -115 -5 -11 -11 -38 -15 -58 l-6 -38 -1867 0 -1868 0 -12 43
c-21 75 -84 402 -98 510 l-5 37 497 0 c471 0 496 -1 483 -17 -8 -10 -38 -45
-67 -77 -30 -32 -58 -69 -63 -82 -5 -14 -14 -23 -20 -22 -6 2 -13 -2 -16 -8
-5 -16 49 -46 122 -68 33 -10 65 -22 70 -26 6 -4 37 -15 70 -25 33 -9 79 -25
102 -36 23 -10 46 -19 52 -19 10 0 81 -70 124 -125 l29 -35 662 0 662 0 83 29
c79 28 181 87 181 105 0 4 11 21 25 38 14 16 25 34 25 39 0 5 -71 9 -165 9
l-165 0 0 -25 c0 -25 -1 -25 -79 -25 -44 0 -82 3 -84 8 -2 4 -2 24 1 45 l4 39
72 -6 c85 -7 115 -11 139 -21 10 -4 24 -2 32 5 17 14 13 42 -15 105 -22 49
-34 142 -25 184 l7 31 620 0 620 0 -5 -22z m-1586 -285 c98 13 111 8 107 -40
-3 -37 -5 -38 -48 -45 -25 -3 -127 -7 -227 -7 l-183 -1 0 26 0 27 63 -7 c224
-24 224 -24 192 38 -20 38 -19 46 3 20 16 -20 21 -21 93 -11z m-1276 -7 c22
-8 76 -21 120 -31 44 -9 91 -21 105 -26 14 -5 73 -21 130 -34 126 -30 247 -32
858 -13 l392 12 0 23 c0 23 1 23 130 23 122 0 130 -1 120 -17 -35 -61 -105
-104 -232 -143 -65 -19 -93 -20 -707 -20 -639 0 -640 0 -651 21 -11 20 -23 35
-72 90 -33 37 -88 65 -208 104 -59 20 -88 32 -65 29 22 -3 58 -11 80 -18z
m713 -64 c7 -11 24 -9 86 9 66 19 79 20 87 8 5 -8 7 -18 6 -24 -2 -6 -79 -11
-195 -13 l-192 -2 0 33 0 34 46 -8 c25 -5 49 -11 54 -14 4 -2 24 -7 45 -11
l37 -6 -6 34 -7 33 15 -30 c8 -16 19 -36 24 -43z m2011 -299 c-8 -38 -42 -140
-59 -178 -5 -11 -16 -45 -26 -75 -9 -30 -20 -59 -24 -65 -4 -5 -11 -26 -15
-45 -4 -19 -13 -46 -20 -60 -7 -14 -19 -41 -26 -60 -18 -50 -47 -118 -74 -171
-54 -105 -88 -164 -96 -167 -5 -2 -9 -8 -9 -13 0 -9 -61 -106 -87 -139 -29
-36 -69 -89 -83 -110 -55 -80 -154 -196 -173 -202 -12 -3 -234 -6 -492 -7
l-470 -1 -24 63 c-13 34 -39 103 -58 152 -18 50 -38 99 -43 110 -6 11 -19 45
-29 75 -10 30 -22 63 -27 74 -6 17 -3 18 37 12 24 -3 83 -9 132 -12 l87 -6 0
62 0 62 -87 -7 c-49 -3 -155 -9 -238 -13 l-150 -7 -3 -37 -3 -38 94 0 94 0
-45 -127 c-25 -71 -53 -146 -63 -169 -11 -22 -19 -46 -19 -52 0 -6 -12 -41
-27 -77 l-27 -65 -506 0 -506 0 -39 51 c-22 29 -47 62 -55 74 -8 13 -57 85
-108 161 -50 77 -97 146 -102 154 -24 35 -61 97 -72 123 -7 15 -15 27 -19 27
-4 0 -12 15 -19 33 -8 17 -19 39 -26 47 -30 37 -146 363 -174 490 -7 30 -16
62 -20 70 -4 9 -11 35 -15 58 l-7 42 1865 0 1864 0 -8 -37z m-1869 -1083 l0
-210 -75 0 c-68 0 -75 2 -75 19 0 11 4 22 9 25 4 3 11 20 15 37 3 17 12 45 20
62 8 18 26 68 41 112 14 44 31 88 36 97 5 10 9 26 9 36 0 17 8 32 17 32 2 0 3
-94 3 -210z m95 45 c65 -173 81 -217 90 -237 6 -16 -1 -18 -79 -18 l-86 0 0
212 c0 246 -1 245 75 43z m1065 -283 c0 -6 -183 -204 -213 -231 -10 -9 -31
-27 -46 -41 -91 -83 -180 -163 -246 -218 -22 -18 -71 -62 -110 -96 -38 -35
-99 -87 -135 -115 -36 -29 -94 -80 -130 -114 -72 -69 -190 -173 -232 -207
l-28 -21 -30 21 c-16 12 -30 25 -30 30 0 5 -14 17 -30 25 -17 9 -84 61 -150
115 -65 55 -123 100 -128 100 -5 0 -18 12 -28 26 -10 14 -46 48 -79 75 -141
115 -174 144 -254 217 -47 42 -133 124 -191 182 -59 58 -137 131 -173 163
-118 103 -243 92 1074 92 637 0 1159 -2 1159 -3z"/>
<path d="M1020 2245 l0 -55 50 0 49 0 3 -157 3 -158 48 -3 47 -3 0 160 0 161
50 0 50 0 0 55 0 55 -150 0 -150 0 0 -55z"/>
<path d="M1377 2293 c-4 -3 -7 -100 -7 -215 l0 -208 55 0 55 0 0 79 c0 44 4
82 9 85 21 13 38 -8 56 -67 28 -94 31 -97 97 -97 58 0 66 6 49 38 -5 9 -17 36
-27 60 -10 24 -30 53 -44 66 l-27 22 27 12 c36 17 54 53 53 112 -1 61 -30 105
-74 114 -42 8 -214 8 -222 -1z"/>
<path d="M1747 2293 c-4 -3 -7 -100 -7 -215 l0 -208 135 0 135 0 0 55 0 55
-90 0 -90 0 0 35 0 35 85 0 85 0 0 50 0 50 -85 0 c-78 0 -85 2 -85 20 0 19 7
20 90 20 l90 0 0 55 0 55 -128 0 c-71 0 -132 -3 -135 -7z"/>
<path d="M2077 2293 c-4 -3 -7 -100 -7 -215 l0 -208 135 0 135 0 0 55 0 55
-80 0 -80 0 0 160 0 160 -48 0 c-27 0 -52 -3 -55 -7z"/>
<path d="M2390 2085 l0 -215 145 0 145 0 0 55 0 55 -95 0 -95 0 0 35 0 35 85
0 85 0 0 50 0 50 -85 0 c-78 0 -85 2 -85 20 0 19 7 20 91 20 l90 0 -3 53 -3
52 -137 3 -138 3 0 -216z"/>
<path d="M2707 2293 c-6 -10 9 -142 28 -258 8 -49 17 -107 20 -127 l6 -38 50
0 c47 0 50 1 56 30 3 17 10 33 14 36 5 3 9 15 9 27 0 35 36 172 42 161 3 -5 9
-29 12 -54 4 -25 14 -80 24 -122 l16 -78 53 0 c50 0 53 2 53 25 0 13 6 60 14
102 8 43 19 116 25 163 6 47 14 97 17 113 6 26 5 27 -35 27 -24 0 -44 -5 -46
-12 -3 -7 -11 -58 -18 -113 -6 -55 -16 -100 -22 -100 -5 0 -19 50 -30 110
l-20 110 -47 3 c-54 3 -62 -5 -71 -78 -11 -81 -29 -152 -37 -143 -4 4 -12 53
-18 107 -7 60 -16 103 -24 107 -16 11 -65 12 -71 2z"/>
</g>
</svg>
